<svg xmlns="http://www.w3.org/2000/svg" xmlns:xlink="http://www.w3.org/1999/xlink" width="500" zoomAndPan="magnify" viewBox="0 0 375 374.999991" height="500" preserveAspectRatio="xMidYMid meet" version="1.0"><defs><g/><clipPath id="9a7099fcf4"><path d="M 112.5 117 L 251 117 L 251 211.574219 L 112.5 211.574219 Z M 112.5 117 " clip-rule="nonzero"/></clipPath><clipPath id="29f334becb"><path d="M 235 95.324219 L 262.5 95.324219 L 262.5 123 L 235 123 Z M 235 95.324219 " clip-rule="nonzero"/></clipPath></defs><g clip-path="url(#9a7099fcf4)"><path fill="#382a40" d="M 128.867188 117.445312 L 188.085938 117.445312 L 188.085938 122.28125 L 135.9375 122.28125 C 134.003906 122.28125 132.421875 123.863281 132.421875 125.796875 L 132.421875 180.875 C 132.421875 182.808594 134.003906 184.390625 135.9375 184.390625 L 226.757812 184.390625 C 228.691406 184.390625 230.273438 182.808594 230.273438 180.875 L 230.273438 163.296875 L 237.890625 163.296875 L 237.890625 185.160156 C 237.890625 186.535156 237.199219 187.753906 236.148438 188.492188 L 237.890625 188.492188 C 237.890625 188.492188 242.1875 193.566406 250.78125 203.722656 C 249.605469 208.371094 247.265625 211.101562 243.75 211.925781 C 243.75 211.925781 202.734375 211.925781 120.703125 211.925781 C 116.65625 211.820312 113.921875 209.085938 112.5 203.722656 C 112.5 203.722656 116.796875 198.648438 125.390625 188.492188 L 126.546875 188.492188 C 125.496094 187.753906 124.804688 186.535156 124.804688 185.160156 L 124.804688 121.507812 C 124.804688 119.273438 126.632812 117.445312 128.867188 117.445312 Z M 171.679688 206.066406 L 191.601562 206.066406 C 192.566406 206.066406 193.359375 206.859375 193.359375 207.824219 C 193.359375 208.792969 192.566406 209.582031 191.601562 209.582031 L 171.679688 209.582031 C 170.714844 209.582031 169.921875 208.792969 169.921875 207.824219 C 169.921875 206.859375 170.714844 206.066406 171.679688 206.066406 Z M 160.546875 204.308594 C 162.890625 200.792969 164.0625 199.035156 164.0625 199.035156 C 187.5 199.035156 199.21875 199.035156 199.21875 199.035156 C 201.5625 202.550781 202.734375 204.308594 202.734375 204.308594 C 174.609375 204.308594 160.546875 204.308594 160.546875 204.308594 Z M 160.546875 204.308594 " fill-opacity="1" fill-rule="evenodd"/></g><path fill="#c2af37" d="M 172.265625 154.507812 L 183.984375 154.507812 L 183.984375 166.226562 L 172.265625 166.226562 Z M 172.265625 154.507812 " fill-opacity="1" fill-rule="evenodd"/><path fill="#ffcf23" d="M 190.429688 153.921875 L 200.835938 153.921875 L 200.835938 164.324219 L 190.429688 164.324219 Z M 190.429688 153.921875 " fill-opacity="1" fill-rule="evenodd"/><path fill="#5cb6f9" d="M 227.304688 135.753906 L 249.574219 135.753906 L 249.574219 158.023438 L 227.304688 158.023438 Z M 227.304688 135.753906 " fill-opacity="1" fill-rule="evenodd"/><path fill="#8db5d2" d="M 209.835938 149.890625 L 222.65625 149.890625 L 222.65625 162.710938 L 209.835938 162.710938 Z M 209.835938 149.890625 " fill-opacity="1" fill-rule="evenodd"/><path fill="#c2af37" d="M 198.117188 135.828125 L 210.9375 135.828125 L 210.9375 148.648438 L 198.117188 148.648438 Z M 198.117188 135.828125 " fill-opacity="1" fill-rule="evenodd"/><path fill="#5cb6f9" d="M 193.394531 119.386719 L 206.214844 119.386719 L 206.214844 132.207031 L 193.394531 132.207031 Z M 193.394531 119.386719 " fill-opacity="1" fill-rule="evenodd"/><path fill="#8db5d2" d="M 179.953125 141.101562 L 190.359375 141.101562 L 190.359375 151.507812 L 179.953125 151.507812 Z M 179.953125 141.101562 " fill-opacity="1" fill-rule="evenodd"/><path fill="#ffcf23" d="M 213.277344 114.074219 L 231.445312 114.074219 L 231.445312 132.242188 L 213.277344 132.242188 Z M 213.277344 114.074219 " fill-opacity="1" fill-rule="evenodd"/><path fill="#c2af37" d="M 216.832031 97.121094 L 229.652344 97.121094 L 229.652344 109.941406 L 216.832031 109.941406 Z M 216.832031 97.121094 " fill-opacity="1" fill-rule="evenodd"/><g clip-path="url(#29f334becb)"><path fill="#8db5d2" d="M 235.542969 95.324219 L 262.5 95.324219 L 262.5 122.28125 L 235.542969 122.28125 Z M 235.542969 95.324219 " fill-opacity="1" fill-rule="evenodd"/></g><g fill="#382a40" fill-opacity="1"><g transform="translate(87.339843, 249.375804)"><g><path d="M 2.84375 0 L 17.519531 0 L 17.519531 -3.746094 L 6.808594 -3.746094 L 6.808594 -9.214844 L 16.785156 -9.214844 L 16.785156 -12.851562 L 6.808594 -12.851562 L 6.808594 -18.425781 L 17.519531 -18.425781 L 17.519531 -22.0625 L 2.84375 -22.0625 Z M 2.84375 0 "/></g></g></g><g fill="#382a40" fill-opacity="1"><g transform="translate(106.773969, 249.375804)"><g><path d="M 6.964844 0.3125 C 9.914062 0.3125 13.054688 -1.28125 13.054688 -4.886719 C 13.054688 -10.617188 5.121094 -9.214844 5.121094 -11.570312 C 5.121094 -12.304688 5.886719 -12.914062 7.136719 -12.914062 C 8.824219 -12.914062 9.695312 -11.898438 10.226562 -10.929688 L 13.179688 -12.539062 C 11.992188 -14.648438 9.945312 -15.925781 7.261719 -15.925781 C 4.246094 -15.925781 1.46875 -14.367188 1.46875 -11.070312 C 1.46875 -5.558594 9.308594 -7.324219 9.308594 -4.699219 C 9.308594 -3.871094 8.542969 -2.84375 6.777344 -2.84375 C 4.699219 -2.84375 3.871094 -4.277344 3.449219 -5.402344 L 0.421875 -4.058594 C 1.1875 -1.65625 3.683594 0.3125 6.964844 0.3125 Z M 6.964844 0.3125 "/></g></g></g><g fill="#382a40" fill-opacity="1"><g transform="translate(120.963222, 249.375804)"><g><path d="M 2.296875 6.839844 L 6.167969 6.839844 L 6.167969 -1.5625 C 7.261719 -0.21875 8.980469 0.3125 10.617188 0.3125 C 14.929688 0.3125 17.300781 -3.480469 17.300781 -7.808594 C 17.300781 -12.148438 14.929688 -15.925781 10.554688 -15.925781 C 8.886719 -15.925781 7.261719 -15.382812 6.167969 -14.039062 L 6.167969 -15.601562 L 2.296875 -15.601562 Z M 9.617188 -3.199219 C 7.011719 -3.199219 5.824219 -5.183594 5.824219 -7.808594 C 5.824219 -10.429688 7.011719 -12.507812 9.617188 -12.507812 C 12.242188 -12.507812 13.429688 -10.429688 13.429688 -7.808594 C 13.429688 -5.183594 12.242188 -3.199219 9.617188 -3.199219 Z M 9.617188 -3.199219 "/></g></g></g><g fill="#382a40" fill-opacity="1"><g transform="translate(139.242228, 249.375804)"><g><path d="M 6.527344 0.3125 C 8.386719 0.3125 10.039062 -0.28125 11.382812 -2.234375 L 11.632812 0 L 14.773438 0 L 14.773438 -9.460938 C 14.773438 -13.273438 12.273438 -15.925781 8.027344 -15.925781 C 4.949219 -15.925781 2.96875 -14.554688 1.46875 -12.507812 L 4.386719 -10.398438 C 5.058594 -11.539062 6.261719 -12.601562 8.058594 -12.601562 C 10.070312 -12.601562 11.132812 -11.289062 11.132812 -9.308594 L 7.074219 -9.308594 C 3.574219 -9.308594 0.859375 -8.183594 0.859375 -4.792969 C 0.859375 -1.53125 3.324219 0.3125 6.527344 0.3125 Z M 7.074219 -2.90625 C 5.589844 -2.90625 4.761719 -3.636719 4.761719 -4.667969 C 4.761719 -5.652344 5.558594 -6.558594 7.292969 -6.558594 L 11.132812 -6.558594 C 11.070312 -4.605469 9.246094 -2.90625 7.074219 -2.90625 Z M 7.074219 -2.90625 "/></g></g></g><g fill="#382a40" fill-opacity="1"><g transform="translate(155.804163, 249.375804)"><g><path d="M 2.171875 -18.550781 L 6.136719 -18.550781 L 6.136719 -22.0625 L 2.171875 -22.0625 Z M 2.265625 0 L 6.042969 0 L 6.042969 -15.601562 L 2.265625 -15.601562 Z M 2.265625 0 "/></g></g></g><g fill="#382a40" fill-opacity="1"><g transform="translate(164.108544, 249.375804)"><g/></g></g><g fill="#382a40" fill-opacity="1"><g transform="translate(171.788536, 249.375804)"><g><path d="M 12.117188 -22.0625 L 12.117188 -14.039062 C 11.039062 -15.382812 9.308594 -15.925781 7.683594 -15.925781 C 3.355469 -15.925781 0.984375 -12.117188 0.984375 -7.808594 C 0.984375 -3.449219 3.355469 0.3125 7.746094 0.3125 C 9.476562 0.3125 11.195312 -0.28125 12.273438 -1.75 L 12.445312 0 L 15.988281 0 L 15.988281 -22.0625 Z M 8.667969 -3.136719 C 6.042969 -3.136719 4.855469 -5.183594 4.855469 -7.808594 C 4.855469 -10.398438 6.042969 -12.476562 8.667969 -12.476562 C 11.289062 -12.476562 12.445312 -10.429688 12.445312 -7.808594 C 12.445312 -5.152344 11.289062 -3.136719 8.667969 -3.136719 Z M 8.667969 -3.136719 "/></g></g></g><g fill="#382a40" fill-opacity="1"><g transform="translate(190.067542, 249.375804)"><g><path d="M 8.761719 0.3125 C 11.382812 0.3125 13.460938 -0.609375 15.164062 -2.5 L 12.539062 -4.792969 C 11.445312 -3.574219 10.195312 -3.136719 8.792969 -3.136719 C 6.339844 -3.136719 5.214844 -4.511719 4.886719 -6.558594 L 15.601562 -6.558594 C 15.675781 -6.777344 15.738281 -7.417969 15.738281 -8.058594 C 15.738281 -11.539062 13.976562 -15.925781 8.511719 -15.925781 C 3.230469 -15.925781 0.859375 -11.804688 0.859375 -7.746094 C 0.859375 -3.542969 3.386719 0.3125 8.761719 0.3125 Z M 4.886719 -9.308594 C 5.246094 -11.257812 6.230469 -12.726562 8.480469 -12.726562 C 10.460938 -12.726562 11.742188 -11.539062 11.992188 -9.308594 Z M 4.886719 -9.308594 "/></g></g></g><g fill="#382a40" fill-opacity="1"><g transform="translate(206.723134, 249.375804)"><g/></g></g><g fill="#382a40" fill-opacity="1"><g transform="translate(214.403127, 249.375804)"><g><path d="M 9.152344 0.25 C 13.367188 0.25 16.816406 -2.265625 16.816406 -6.433594 C 16.816406 -13.757812 6.136719 -12.351562 6.136719 -16.503906 C 6.136719 -17.910156 7.355469 -18.863281 8.917969 -18.863281 C 10.398438 -18.863281 11.710938 -18.003906 12.476562 -16.503906 L 15.769531 -18.519531 C 14.257812 -21.207031 11.773438 -22.390625 9.058594 -22.390625 C 5.339844 -22.390625 2.171875 -20.207031 2.171875 -16.300781 C 2.171875 -9.121094 12.851562 -10.648438 12.851562 -6.074219 C 12.851562 -4.511719 11.570312 -3.261719 9.214844 -3.261719 C 6.871094 -3.261719 4.917969 -4.480469 4.636719 -7.230469 L 0.703125 -6.230469 C 1.40625 -1.890625 5.246094 0.25 9.152344 0.25 Z M 9.152344 0.25 "/></g></g></g><g fill="#382a40" fill-opacity="1"><g transform="translate(232.151401, 249.375804)"><g><path d="M 6.527344 0.3125 C 8.386719 0.3125 10.039062 -0.28125 11.382812 -2.234375 L 11.632812 0 L 14.773438 0 L 14.773438 -9.460938 C 14.773438 -13.273438 12.273438 -15.925781 8.027344 -15.925781 C 4.949219 -15.925781 2.96875 -14.554688 1.46875 -12.507812 L 4.386719 -10.398438 C 5.058594 -11.539062 6.261719 -12.601562 8.058594 -12.601562 C 10.070312 -12.601562 11.132812 -11.289062 11.132812 -9.308594 L 7.074219 -9.308594 C 3.574219 -9.308594 0.859375 -8.183594 0.859375 -4.792969 C 0.859375 -1.53125 3.324219 0.3125 6.527344 0.3125 Z M 7.074219 -2.90625 C 5.589844 -2.90625 4.761719 -3.636719 4.761719 -4.667969 C 4.761719 -5.652344 5.558594 -6.558594 7.292969 -6.558594 L 11.132812 -6.558594 C 11.070312 -4.605469 9.246094 -2.90625 7.074219 -2.90625 Z M 7.074219 -2.90625 "/></g></g></g><g fill="#382a40" fill-opacity="1"><g transform="translate(248.713336, 249.375804)"><g><path d="M 5.433594 0.3125 C 6.339844 0.3125 7.480469 0.15625 8.277344 0 L 8.277344 -3.199219 C 7.871094 -3.136719 7.449219 -3.109375 7.230469 -3.109375 C 6.464844 -3.109375 5.980469 -3.417969 5.980469 -4.152344 L 5.980469 -22.0625 L 2.171875 -22.0625 L 2.171875 -3.109375 C 2.171875 -0.359375 3.636719 0.3125 5.433594 0.3125 Z M 5.433594 0.3125 "/></g></g></g><g fill="#382a40" fill-opacity="1"><g transform="translate(257.657717, 249.375804)"><g><path d="M 7.480469 0.3125 C 9.339844 0.3125 10.960938 -0.359375 12.085938 -1.828125 L 12.085938 0 L 15.957031 0 L 15.957031 -15.601562 L 12.085938 -15.601562 L 12.085938 -8.574219 C 12.085938 -4.058594 10.257812 -3.136719 8.480469 -3.136719 C 6.167969 -3.136719 5.652344 -4.699219 5.652344 -7.261719 L 5.652344 -15.601562 L 1.796875 -15.601562 L 1.796875 -7.386719 C 1.796875 -2.6875 3.542969 0.3125 7.480469 0.3125 Z M 7.480469 0.3125 "/></g></g></g><g fill="#382a40" fill-opacity="1"><g transform="translate(275.874284, 249.375804)"><g><path d="M 7.808594 0.3125 C 8.886719 0.3125 10.039062 0.0625 10.617188 -0.15625 L 10.617188 -3.605469 C 10.101562 -3.355469 9.246094 -3.046875 8.449219 -3.046875 C 7.449219 -3.046875 6.683594 -3.480469 6.683594 -4.980469 L 6.683594 -12.414062 L 10.617188 -12.414062 L 10.617188 -15.601562 L 6.683594 -15.601562 L 6.683594 -22.1875 L 2.96875 -19.472656 L 2.96875 -15.601562 L 0.390625 -15.601562 L 0.390625 -12.414062 L 2.90625 -12.414062 L 2.90625 -4.308594 C 2.90625 -1.46875 4.730469 0.3125 7.808594 0.3125 Z M 7.808594 0.3125 "/></g></g></g><g fill="#382a40" fill-opacity="1"><g transform="translate(141.363276, 280.875802)"><g><path d="M 2.84375 0 L 9.214844 0 C 16.628906 0 20.722656 -3.996094 20.722656 -10.867188 C 20.722656 -18.035156 16.753906 -22.0625 9.246094 -22.0625 L 2.84375 -22.0625 Z M 6.808594 -3.636719 L 6.808594 -18.425781 L 9.183594 -18.425781 C 14.617188 -18.425781 16.753906 -16.269531 16.753906 -11.039062 C 16.753906 -5.527344 13.695312 -3.636719 8.824219 -3.636719 Z M 6.808594 -3.636719 "/></g></g></g><g fill="#382a40" fill-opacity="1"><g transform="translate(163.3574, 280.875802)"><g><path d="M 2.171875 -18.550781 L 6.136719 -18.550781 L 6.136719 -22.0625 L 2.171875 -22.0625 Z M 2.265625 0 L 6.042969 0 L 6.042969 -15.601562 L 2.265625 -15.601562 Z M 2.265625 0 "/></g></g></g><g fill="#382a40" fill-opacity="1"><g transform="translate(171.661782, 280.875802)"><g><path d="M 9.398438 -2.4375 C 6.621094 -2.78125 4.699219 -2.8125 4.699219 -4.089844 C 4.699219 -4.449219 4.839844 -4.714844 5.152344 -4.917969 C 6.042969 -4.527344 7.042969 -4.308594 8.121094 -4.308594 C 11.539062 -4.308594 14.460938 -6.527344 14.460938 -10.007812 C 14.460938 -11.023438 14.226562 -11.945312 13.789062 -12.726562 L 16.050781 -14.554688 L 14.070312 -16.972656 L 11.679688 -14.929688 C 10.632812 -15.570312 9.355469 -15.925781 7.996094 -15.925781 C 4.542969 -15.925781 1.59375 -13.585938 1.59375 -10.195312 C 1.59375 -8.824219 2.078125 -7.589844 2.890625 -6.605469 C 1.96875 -5.792969 1.4375 -4.777344 1.4375 -3.386719 C 1.4375 -1.890625 2.046875 -0.9375 2.96875 -0.3125 L 1.34375 1.15625 C 1.3125 1.3125 1.28125 1.46875 1.28125 1.828125 C 1.28125 5.027344 3.964844 7.386719 8.574219 7.386719 C 12.445312 7.386719 15.476562 5.699219 15.476562 2.171875 C 15.476562 -1.40625 12.351562 -2.046875 9.398438 -2.4375 Z M 8.121094 -12.976562 C 9.789062 -12.976562 10.679688 -11.804688 10.679688 -10.164062 C 10.679688 -8.574219 9.820312 -7.417969 8.121094 -7.417969 C 6.433594 -7.417969 5.527344 -8.574219 5.527344 -10.164062 C 5.527344 -11.804688 6.464844 -12.976562 8.121094 -12.976562 Z M 8.605469 4.386719 C 6.371094 4.386719 4.699219 3.574219 4.480469 1.921875 L 5.277344 0.609375 C 6.199219 0.828125 7.183594 0.921875 8.058594 1.03125 C 10.523438 1.3125 11.867188 1.46875 11.867188 2.625 C 11.867188 3.746094 10.585938 4.386719 8.605469 4.386719 Z M 8.605469 4.386719 "/></g></g></g><g fill="#382a40" fill-opacity="1"><g transform="translate(188.0364, 280.875802)"><g><path d="M 2.171875 -18.550781 L 6.136719 -18.550781 L 6.136719 -22.0625 L 2.171875 -22.0625 Z M 2.265625 0 L 6.042969 0 L 6.042969 -15.601562 L 2.265625 -15.601562 Z M 2.265625 0 "/></g></g></g><g fill="#382a40" fill-opacity="1"><g transform="translate(196.340781, 280.875802)"><g><path d="M 7.808594 0.3125 C 8.886719 0.3125 10.039062 0.0625 10.617188 -0.15625 L 10.617188 -3.605469 C 10.101562 -3.355469 9.246094 -3.046875 8.449219 -3.046875 C 7.449219 -3.046875 6.683594 -3.480469 6.683594 -4.980469 L 6.683594 -12.414062 L 10.617188 -12.414062 L 10.617188 -15.601562 L 6.683594 -15.601562 L 6.683594 -22.1875 L 2.96875 -19.472656 L 2.96875 -15.601562 L 0.390625 -15.601562 L 0.390625 -12.414062 L 2.90625 -12.414062 L 2.90625 -4.308594 C 2.90625 -1.46875 4.730469 0.3125 7.808594 0.3125 Z M 7.808594 0.3125 "/></g></g></g><g fill="#382a40" fill-opacity="1"><g transform="translate(208.110525, 280.875802)"><g><path d="M 6.527344 0.3125 C 8.386719 0.3125 10.039062 -0.28125 11.382812 -2.234375 L 11.632812 0 L 14.773438 0 L 14.773438 -9.460938 C 14.773438 -13.273438 12.273438 -15.925781 8.027344 -15.925781 C 4.949219 -15.925781 2.96875 -14.554688 1.46875 -12.507812 L 4.386719 -10.398438 C 5.058594 -11.539062 6.261719 -12.601562 8.058594 -12.601562 C 10.070312 -12.601562 11.132812 -11.289062 11.132812 -9.308594 L 7.074219 -9.308594 C 3.574219 -9.308594 0.859375 -8.183594 0.859375 -4.792969 C 0.859375 -1.53125 3.324219 0.3125 6.527344 0.3125 Z M 7.074219 -2.90625 C 5.589844 -2.90625 4.761719 -3.636719 4.761719 -4.667969 C 4.761719 -5.652344 5.558594 -6.558594 7.292969 -6.558594 L 11.132812 -6.558594 C 11.070312 -4.605469 9.246094 -2.90625 7.074219 -2.90625 Z M 7.074219 -2.90625 "/></g></g></g><g fill="#382a40" fill-opacity="1"><g transform="translate(224.67246, 280.875802)"><g><path d="M 5.433594 0.3125 C 6.339844 0.3125 7.480469 0.15625 8.277344 0 L 8.277344 -3.199219 C 7.871094 -3.136719 7.449219 -3.109375 7.230469 -3.109375 C 6.464844 -3.109375 5.980469 -3.417969 5.980469 -4.152344 L 5.980469 -22.0625 L 2.171875 -22.0625 L 2.171875 -3.109375 C 2.171875 -0.359375 3.636719 0.3125 5.433594 0.3125 Z M 5.433594 0.3125 "/></g></g></g><g fill="#382a40" fill-opacity="1"><g transform="translate(102.415911, 315.76832)"><g><path d="M 1.597656 0 L 3.742188 0 L 3.742188 -9.289062 L 6.820312 -1.082031 L 8.980469 -1.082031 L 12.058594 -9.289062 L 12.058594 0 L 14.203125 0 L 14.203125 -12.417969 L 11.195312 -12.417969 L 7.902344 -3.585938 L 4.605469 -12.417969 L 1.597656 -12.417969 Z M 1.597656 0 "/></g></g></g><g fill="#382a40" fill-opacity="1"><g transform="translate(119.658645, 315.76832)"><g><path d="M 0.105469 0 L 2.539062 0 L 3.507812 -2.699219 L 8.332031 -2.699219 L 9.289062 0 L 11.699219 0 L 6.75 -12.417969 L 5.078125 -12.417969 Z M 4.261719 -4.605469 L 5.921875 -9.140625 L 7.574219 -4.605469 Z M 4.261719 -4.605469 "/></g></g></g><g fill="#382a40" fill-opacity="1"><g transform="translate(132.902354, 315.76832)"><g><path d="M 1.597656 0.015625 L 3.832031 0.015625 L 3.832031 -5.308594 L 5.324219 -5.308594 L 8.382812 0.015625 L 10.941406 0.015625 L 7.488281 -5.527344 C 8.894531 -6.011719 9.914062 -7.199219 9.914062 -8.761719 C 9.914062 -11.089844 7.9375 -12.417969 5.617188 -12.417969 L 1.597656 -12.417969 Z M 3.847656 -7.128906 L 3.847656 -10.421875 L 5.632812 -10.421875 C 6.90625 -10.421875 7.707031 -9.753906 7.707031 -8.726562 C 7.707031 -7.796875 7.003906 -7.179688 5.816406 -7.128906 Z M 3.847656 -7.128906 "/></g></g></g><g fill="#382a40" fill-opacity="1"><g transform="translate(145.486886, 315.76832)"><g><path d="M 1.597656 0 L 3.832031 0 L 3.832031 -12.417969 L 1.597656 -12.417969 Z M 1.597656 0 "/></g></g></g><g fill="#382a40" fill-opacity="1"><g transform="translate(152.358525, 315.76832)"><g><path d="M 6.714844 0.175781 C 10.820312 0.175781 12.707031 -2.828125 12.707031 -6.214844 C 12.707031 -9.597656 10.820312 -12.601562 6.714844 -12.601562 C 2.609375 -12.601562 0.71875 -9.597656 0.71875 -6.214844 C 0.71875 -2.828125 2.609375 0.175781 6.714844 0.175781 Z M 6.714844 -1.800781 C 4.050781 -1.800781 3.074219 -3.867188 3.074219 -6.214844 C 3.074219 -8.550781 4.050781 -10.617188 6.714844 -10.617188 C 9.378906 -10.617188 10.351562 -8.550781 10.351562 -6.214844 C 10.351562 -3.867188 9.378906 -1.800781 6.714844 -1.800781 Z M 6.714844 -1.800781 "/></g></g></g><g fill="#382a40" fill-opacity="1"><g transform="translate(167.22821, 315.76832)"><g><path d="M 1.597656 0 L 3.742188 0 L 3.742188 -8.710938 L 8.945312 0 L 11.179688 0 L 11.179688 -12.417969 L 9.035156 -12.417969 L 9.035156 -3.726562 L 3.8125 -12.417969 L 1.597656 -12.417969 Z M 1.597656 0 "/></g></g></g><g fill="#382a40" fill-opacity="1"><g transform="translate(181.447505, 315.76832)"><g><path d="M 0.105469 0 L 2.539062 0 L 3.507812 -2.699219 L 8.332031 -2.699219 L 9.289062 0 L 11.699219 0 L 6.75 -12.417969 L 5.078125 -12.417969 Z M 4.261719 -4.605469 L 5.921875 -9.140625 L 7.574219 -4.605469 Z M 4.261719 -4.605469 "/></g></g></g><g fill="#382a40" fill-opacity="1"><g transform="translate(194.691213, 315.76832)"><g/></g></g><g fill="#382a40" fill-opacity="1"><g transform="translate(200.455436, 315.76832)"><g><path d="M 5.078125 0 L 6.75 0 L 11.699219 -12.417969 L 9.253906 -12.417969 L 5.921875 -3.621094 L 2.574219 -12.417969 L 0.105469 -12.417969 Z M 5.078125 0 "/></g></g></g><g fill="#382a40" fill-opacity="1"><g transform="translate(213.699145, 315.76832)"><g><path d="M 1.597656 0 L 3.832031 0 L 3.832031 -12.417969 L 1.597656 -12.417969 Z M 1.597656 0 "/></g></g></g><g fill="#382a40" fill-opacity="1"><g transform="translate(220.570783, 315.76832)"><g><path d="M 1.597656 0 L 9.140625 0 L 9.140625 -2.109375 L 3.832031 -2.109375 L 3.832031 -12.417969 L 1.597656 -12.417969 Z M 1.597656 0 "/></g></g></g><g fill="#382a40" fill-opacity="1"><g transform="translate(231.353555, 315.76832)"><g><path d="M 0.105469 0 L 2.539062 0 L 3.507812 -2.699219 L 8.332031 -2.699219 L 9.289062 0 L 11.699219 0 L 6.75 -12.417969 L 5.078125 -12.417969 Z M 4.261719 -4.605469 L 5.921875 -9.140625 L 7.574219 -4.605469 Z M 4.261719 -4.605469 "/></g></g></g><g fill="#382a40" fill-opacity="1"><g transform="translate(244.597263, 315.76832)"><g><path d="M 1.597656 0.015625 L 3.832031 0.015625 L 3.832031 -5.308594 L 5.324219 -5.308594 L 8.382812 0.015625 L 10.941406 0.015625 L 7.488281 -5.527344 C 8.894531 -6.011719 9.914062 -7.199219 9.914062 -8.761719 C 9.914062 -11.089844 7.9375 -12.417969 5.617188 -12.417969 L 1.597656 -12.417969 Z M 3.847656 -7.128906 L 3.847656 -10.421875 L 5.632812 -10.421875 C 6.90625 -10.421875 7.707031 -9.753906 7.707031 -8.726562 C 7.707031 -7.796875 7.003906 -7.179688 5.816406 -7.128906 Z M 3.847656 -7.128906 "/></g></g></g></svg>